<svg width="49" height="49" viewBox="0 0 49 49" fill="none" xmlns="http://www.w3.org/2000/svg">
<mask id="path-1-inside-1_44_2995" fill="white">
<path d="M33.9897 2.60951C33.9897 2.60951 34.2866 2.30792 34.8804 1.70475C35.4741 1.10157 36.5991 0.799988 38.2554 0.799988C39.9116 0.799988 41.3335 1.40316 42.521 2.60951C43.7085 3.81586 44.3022 5.27618 44.3022 6.99046C44.3022 8.70475 43.7085 10.1651 42.521 11.3714C41.3335 12.5778 39.9116 13.1809 38.2554 13.1809C36.5991 13.1809 35.1772 12.5778 33.9897 11.3714C32.8022 10.1651 32.2085 8.70475 32.2085 6.99046C32.2085 5.27618 32.8022 3.81586 33.9897 2.60951ZM35.6304 9.60951C35.6304 9.60951 35.6304 9.60951 35.6304 9.60951C35.6304 9.60952 35.8101 9.79206 36.1694 10.1571C36.5288 10.5222 37.2241 10.7048 38.2554 10.7048C39.2866 10.7048 40.1616 10.3397 40.8804 9.60951C41.5991 8.87935 41.9585 8.00634 41.9585 6.99046C41.9585 5.97459 41.5991 5.10157 40.8804 4.37141C40.1616 3.64126 39.2866 3.27618 38.2554 3.27618C37.2241 3.27618 36.3491 3.64126 35.6304 4.37141C34.9116 5.10157 34.5522 5.97459 34.5522 6.99046C34.5522 8.00634 34.9116 8.87935 35.6304 9.60951ZM28.646 11.3714C28.646 11.3714 28.646 11.3714 28.646 11.3714C28.646 11.3714 28.3491 11.673 27.7554 12.2762C27.1616 12.8794 26.021 13.1809 24.3335 13.1809C22.646 13.1809 21.2085 12.5778 20.021 11.3714C18.8335 10.1651 18.2397 8.70475 18.2397 6.99046C18.2397 5.27618 18.8335 3.81586 20.021 2.60951C21.2085 1.40316 22.646 0.799988 24.3335 0.799988C26.021 0.799988 27.4585 1.40316 28.646 2.60951C29.8335 3.81586 30.4272 5.27618 30.4272 6.99046C30.4272 8.70475 29.8335 10.1651 28.646 11.3714ZM26.9116 4.37141C26.9116 4.37141 26.9116 4.37142 26.9116 4.37141C26.9116 4.37141 26.7319 4.18887 26.3726 3.8238C26.0132 3.45872 25.3335 3.27618 24.3335 3.27618C23.3335 3.27618 22.4741 3.64126 21.7554 4.37141C21.0366 5.10157 20.6772 5.97459 20.6772 6.99046C20.6772 8.00634 21.0366 8.87935 21.7554 9.60951C22.4741 10.3397 23.3335 10.7048 24.3335 10.7048C25.3335 10.7048 26.1929 10.3397 26.9116 9.60951C27.6304 8.87935 27.9897 8.00634 27.9897 6.99046C27.9897 5.97459 27.6304 5.10157 26.9116 4.37141ZM42.3335 14.419C43.9585 14.419 45.3647 15.0063 46.5522 16.1809C47.7397 17.3555 48.3335 18.8 48.3335 20.5143V28.3238C48.3335 32.3671 45.146 36.179 45.146 40.2223V43.9428C45.146 45.2762 44.6772 46.419 43.7397 47.3714C42.8022 48.3238 41.6772 48.8 40.3647 48.8H34.9272C34.6147 48.8 34.3335 48.673 34.0835 48.419C33.8335 48.1651 33.7085 47.8635 33.7085 47.5143C33.7085 47.1651 33.8335 46.8794 34.0835 46.6571C34.3335 46.4349 34.6147 46.3238 34.9272 46.3238H40.3647C41.0522 46.3238 41.6304 46.0857 42.0991 45.6095C42.5679 45.1333 42.8022 44.5778 42.8022 43.9428V32.8952C42.8022 32.3238 43.0522 31.9428 43.5522 31.7524C45.1147 31.1809 45.896 30.0381 45.896 28.3238V20.5143C45.896 19.4984 45.5522 18.6254 44.8647 17.8952C44.1772 17.1651 43.3335 16.8 42.3335 16.8H37.1772C36.8647 16.8 36.5835 16.6889 36.3335 16.4667C36.0835 16.2444 35.9585 15.9587 35.9585 15.6095C35.9585 15.2603 36.0835 14.9746 36.3335 14.7524C36.5835 14.5301 36.8647 14.419 37.1772 14.419H42.3335ZM21.6147 48.7047C20.3022 48.7047 19.1772 48.2286 18.2397 47.2762C17.3022 46.3238 16.8335 45.1809 16.8335 43.8476V40.2223C16.8335 36.179 13.646 32.3671 13.646 28.3238V20.5143C13.646 18.8 14.2397 17.3555 15.4272 16.1809C16.6147 15.0063 18.021 14.419 19.646 14.419H29.021C30.646 14.419 32.0522 15.0063 33.2397 16.1809C34.4272 17.3555 35.021 18.8 35.021 20.5143V28.3238C35.021 32.3671 31.8335 36.179 31.8335 40.2223V43.8476C31.8335 45.1809 31.3647 46.3238 30.4272 47.2762C29.4897 48.2286 28.3647 48.7047 27.0522 48.7047H21.6147ZM16.0835 28.3238C16.0835 29.9746 16.8647 31.1174 18.4272 31.7524C18.9897 31.9428 19.271 32.3238 19.271 32.8952V43.8476C19.271 44.546 19.5054 45.1333 19.9741 45.6095C20.4429 46.0857 20.9897 46.3238 21.6147 46.3238H27.0522C27.7397 46.3238 28.3179 46.0857 28.7866 45.6095C29.2554 45.1333 29.4897 44.546 29.4897 43.8476V32.8952C29.4897 32.3238 29.7397 31.9428 30.2397 31.7524C30.9272 31.4349 31.4897 30.9746 31.9272 30.3714C32.3647 29.7682 32.5835 29.0857 32.5835 28.3238V20.5143C32.5835 19.4984 32.2397 18.6254 31.5522 17.8952C30.8647 17.1651 30.021 16.8 29.021 16.8H19.646C18.646 16.8 17.8022 17.1651 17.1147 17.8952C16.4272 18.6254 16.0835 19.4984 16.0835 20.5143V28.3238ZM14.6772 2.60951C14.6772 2.60951 14.6772 2.60951 14.6772 2.60951C14.6772 2.60951 14.9741 2.9111 15.5679 3.51427C16.1616 4.11745 16.4585 5.27618 16.4585 6.99046C16.4585 8.70475 15.8647 10.1651 14.6772 11.3714C13.4897 12.5778 12.0679 13.1809 10.4116 13.1809C8.75537 13.1809 7.3335 12.5778 6.146 11.3714C4.9585 10.1651 4.36475 8.70475 4.36475 6.99046C4.36475 5.27618 4.9585 3.81586 6.146 2.60951C7.3335 1.40316 8.75537 0.799988 10.4116 0.799988C12.0679 0.799988 13.4897 1.40316 14.6772 2.60951ZM7.78662 4.37141C7.78662 4.37141 7.78662 4.37142 7.78662 4.37141C7.78661 4.37142 7.60693 4.55396 7.24756 4.91903C6.88818 5.28411 6.7085 5.97459 6.7085 6.99046C6.7085 8.00634 7.06787 8.87935 7.78662 9.60951C8.50537 10.3397 9.38037 10.7048 10.4116 10.7048C11.4429 10.7048 12.3179 10.3397 13.0366 9.60951C13.7554 8.87935 14.1147 8.00634 14.1147 6.99046C14.1147 5.97459 13.7554 5.10157 13.0366 4.37141C12.3179 3.64126 11.4429 3.27618 10.4116 3.27618C9.38037 3.27618 8.50537 3.64126 7.78662 4.37141ZM8.30225 48.7047C6.98975 48.7047 5.86475 48.2286 4.92725 47.2762C3.98975 46.3238 3.521 45.1809 3.521 43.8476V40.3088C3.521 36.2122 0.333496 32.3251 0.333496 28.2286V20.5143C0.333496 18.8 0.927246 17.3397 2.11475 16.1333C3.30225 14.927 4.7085 14.3238 6.3335 14.3238H11.4897C11.8022 14.3238 12.0835 14.4508 12.3335 14.7048C12.5835 14.9587 12.7085 15.2603 12.7085 15.6095C12.7085 15.9587 12.5835 16.2444 12.3335 16.4667C12.0835 16.6889 11.8022 16.8 11.4897 16.8H6.3335C5.3335 16.8 4.48975 17.1651 3.80225 17.8952C3.11475 18.6254 2.771 19.4984 2.771 20.5143V28.3238C2.771 29.9746 3.55225 31.1174 5.11475 31.7524C5.61475 31.9428 5.86475 32.3238 5.86475 32.8952V43.8476C5.86475 44.546 6.09912 45.1333 6.56787 45.6095C7.03662 46.0857 7.61475 46.3238 8.30225 46.3238H13.7397C14.0522 46.3238 14.3335 46.4349 14.5835 46.6571C14.8335 46.8794 14.9585 47.1651 14.9585 47.5143C14.9585 47.8635 14.8335 48.1492 14.5835 48.3714C14.3335 48.5936 14.0522 48.7047 13.7397 48.7047H8.30225Z"/>
</mask>
<path d="M33.9897 2.60951C33.9897 2.60951 34.2866 2.30792 34.8804 1.70475C35.4741 1.10157 36.5991 0.799988 38.2554 0.799988C39.9116 0.799988 41.3335 1.40316 42.521 2.60951C43.7085 3.81586 44.3022 5.27618 44.3022 6.99046C44.3022 8.70475 43.7085 10.1651 42.521 11.3714C41.3335 12.5778 39.9116 13.1809 38.2554 13.1809C36.5991 13.1809 35.1772 12.5778 33.9897 11.3714C32.8022 10.1651 32.2085 8.70475 32.2085 6.99046C32.2085 5.27618 32.8022 3.81586 33.9897 2.60951ZM35.6304 9.60951C35.6304 9.60951 35.6304 9.60951 35.6304 9.60951C35.6304 9.60952 35.8101 9.79206 36.1694 10.1571C36.5288 10.5222 37.2241 10.7048 38.2554 10.7048C39.2866 10.7048 40.1616 10.3397 40.8804 9.60951C41.5991 8.87935 41.9585 8.00634 41.9585 6.99046C41.9585 5.97459 41.5991 5.10157 40.8804 4.37141C40.1616 3.64126 39.2866 3.27618 38.2554 3.27618C37.2241 3.27618 36.3491 3.64126 35.6304 4.37141C34.9116 5.10157 34.5522 5.97459 34.5522 6.99046C34.5522 8.00634 34.9116 8.87935 35.6304 9.60951ZM28.646 11.3714C28.646 11.3714 28.646 11.3714 28.646 11.3714C28.646 11.3714 28.3491 11.673 27.7554 12.2762C27.1616 12.8794 26.021 13.1809 24.3335 13.1809C22.646 13.1809 21.2085 12.5778 20.021 11.3714C18.8335 10.1651 18.2397 8.70475 18.2397 6.99046C18.2397 5.27618 18.8335 3.81586 20.021 2.60951C21.2085 1.40316 22.646 0.799988 24.3335 0.799988C26.021 0.799988 27.4585 1.40316 28.646 2.60951C29.8335 3.81586 30.4272 5.27618 30.4272 6.99046C30.4272 8.70475 29.8335 10.1651 28.646 11.3714ZM26.9116 4.37141C26.9116 4.37141 26.9116 4.37142 26.9116 4.37141C26.9116 4.37141 26.7319 4.18887 26.3726 3.8238C26.0132 3.45872 25.3335 3.27618 24.3335 3.27618C23.3335 3.27618 22.4741 3.64126 21.7554 4.37141C21.0366 5.10157 20.6772 5.97459 20.6772 6.99046C20.6772 8.00634 21.0366 8.87935 21.7554 9.60951C22.4741 10.3397 23.3335 10.7048 24.3335 10.7048C25.3335 10.7048 26.1929 10.3397 26.9116 9.60951C27.6304 8.87935 27.9897 8.00634 27.9897 6.99046C27.9897 5.97459 27.6304 5.10157 26.9116 4.37141ZM42.3335 14.419C43.9585 14.419 45.3647 15.0063 46.5522 16.1809C47.7397 17.3555 48.3335 18.8 48.3335 20.5143V28.3238C48.3335 32.3671 45.146 36.179 45.146 40.2223V43.9428C45.146 45.2762 44.6772 46.419 43.7397 47.3714C42.8022 48.3238 41.6772 48.8 40.3647 48.8H34.9272C34.6147 48.8 34.3335 48.673 34.0835 48.419C33.8335 48.1651 33.7085 47.8635 33.7085 47.5143C33.7085 47.1651 33.8335 46.8794 34.0835 46.6571C34.3335 46.4349 34.6147 46.3238 34.9272 46.3238H40.3647C41.0522 46.3238 41.6304 46.0857 42.0991 45.6095C42.5679 45.1333 42.8022 44.5778 42.8022 43.9428V32.8952C42.8022 32.3238 43.0522 31.9428 43.5522 31.7524C45.1147 31.1809 45.896 30.0381 45.896 28.3238V20.5143C45.896 19.4984 45.5522 18.6254 44.8647 17.8952C44.1772 17.1651 43.3335 16.8 42.3335 16.8H37.1772C36.8647 16.8 36.5835 16.6889 36.3335 16.4667C36.0835 16.2444 35.9585 15.9587 35.9585 15.6095C35.9585 15.2603 36.0835 14.9746 36.3335 14.7524C36.5835 14.5301 36.8647 14.419 37.1772 14.419H42.3335ZM21.6147 48.7047C20.3022 48.7047 19.1772 48.2286 18.2397 47.2762C17.3022 46.3238 16.8335 45.1809 16.8335 43.8476V40.2223C16.8335 36.179 13.646 32.3671 13.646 28.3238V20.5143C13.646 18.8 14.2397 17.3555 15.4272 16.1809C16.6147 15.0063 18.021 14.419 19.646 14.419H29.021C30.646 14.419 32.0522 15.0063 33.2397 16.1809C34.4272 17.3555 35.021 18.8 35.021 20.5143V28.3238C35.021 32.3671 31.8335 36.179 31.8335 40.2223V43.8476C31.8335 45.1809 31.3647 46.3238 30.4272 47.2762C29.4897 48.2286 28.3647 48.7047 27.0522 48.7047H21.6147ZM16.0835 28.3238C16.0835 29.9746 16.8647 31.1174 18.4272 31.7524C18.9897 31.9428 19.271 32.3238 19.271 32.8952V43.8476C19.271 44.546 19.5054 45.1333 19.9741 45.6095C20.4429 46.0857 20.9897 46.3238 21.6147 46.3238H27.0522C27.7397 46.3238 28.3179 46.0857 28.7866 45.6095C29.2554 45.1333 29.4897 44.546 29.4897 43.8476V32.8952C29.4897 32.3238 29.7397 31.9428 30.2397 31.7524C30.9272 31.4349 31.4897 30.9746 31.9272 30.3714C32.3647 29.7682 32.5835 29.0857 32.5835 28.3238V20.5143C32.5835 19.4984 32.2397 18.6254 31.5522 17.8952C30.8647 17.1651 30.021 16.8 29.021 16.8H19.646C18.646 16.8 17.8022 17.1651 17.1147 17.8952C16.4272 18.6254 16.0835 19.4984 16.0835 20.5143V28.3238ZM14.6772 2.60951C14.6772 2.60951 14.6772 2.60951 14.6772 2.60951C14.6772 2.60951 14.9741 2.9111 15.5679 3.51427C16.1616 4.11745 16.4585 5.27618 16.4585 6.99046C16.4585 8.70475 15.8647 10.1651 14.6772 11.3714C13.4897 12.5778 12.0679 13.1809 10.4116 13.1809C8.75537 13.1809 7.3335 12.5778 6.146 11.3714C4.9585 10.1651 4.36475 8.70475 4.36475 6.99046C4.36475 5.27618 4.9585 3.81586 6.146 2.60951C7.3335 1.40316 8.75537 0.799988 10.4116 0.799988C12.0679 0.799988 13.4897 1.40316 14.6772 2.60951ZM7.78662 4.37141C7.78662 4.37141 7.78662 4.37142 7.78662 4.37141C7.78661 4.37142 7.60693 4.55396 7.24756 4.91903C6.88818 5.28411 6.7085 5.97459 6.7085 6.99046C6.7085 8.00634 7.06787 8.87935 7.78662 9.60951C8.50537 10.3397 9.38037 10.7048 10.4116 10.7048C11.4429 10.7048 12.3179 10.3397 13.0366 9.60951C13.7554 8.87935 14.1147 8.00634 14.1147 6.99046C14.1147 5.97459 13.7554 5.10157 13.0366 4.37141C12.3179 3.64126 11.4429 3.27618 10.4116 3.27618C9.38037 3.27618 8.50537 3.64126 7.78662 4.37141ZM8.30225 48.7047C6.98975 48.7047 5.86475 48.2286 4.92725 47.2762C3.98975 46.3238 3.521 45.1809 3.521 43.8476V40.3088C3.521 36.2122 0.333496 32.3251 0.333496 28.2286V20.5143C0.333496 18.8 0.927246 17.3397 2.11475 16.1333C3.30225 14.927 4.7085 14.3238 6.3335 14.3238H11.4897C11.8022 14.3238 12.0835 14.4508 12.3335 14.7048C12.5835 14.9587 12.7085 15.2603 12.7085 15.6095C12.7085 15.9587 12.5835 16.2444 12.3335 16.4667C12.0835 16.6889 11.8022 16.8 11.4897 16.8H6.3335C5.3335 16.8 4.48975 17.1651 3.80225 17.8952C3.11475 18.6254 2.771 19.4984 2.771 20.5143V28.3238C2.771 29.9746 3.55225 31.1174 5.11475 31.7524C5.61475 31.9428 5.86475 32.3238 5.86475 32.8952V43.8476C5.86475 44.546 6.09912 45.1333 6.56787 45.6095C7.03662 46.0857 7.61475 46.3238 8.30225 46.3238H13.7397C14.0522 46.3238 14.3335 46.4349 14.5835 46.6571C14.8335 46.8794 14.9585 47.1651 14.9585 47.5143C14.9585 47.8635 14.8335 48.1492 14.5835 48.3714C14.3335 48.5936 14.0522 48.7047 13.7397 48.7047H8.30225Z" stroke="url(#paint0_linear_44_2995)" stroke-width="2" mask="url(#path-1-inside-1_44_2995)"/>
<defs>
<linearGradient id="paint0_linear_44_2995" x1="-1.1665" y1="48.4618" x2="53.2575" y2="44.6107" gradientUnits="userSpaceOnUse">
<stop stop-color="#008EBE"/>
<stop offset="0.444" stop-color="#48BDE8"/>
<stop offset="0.9999" stop-color="#01395A"/>
</linearGradient>
</defs>
</svg>
