<svg width="48" height="49" viewBox="0 0 48 49" fill="none" xmlns="http://www.w3.org/2000/svg">
<mask id="path-1-inside-1_44_2996" fill="white">
<path d="M48.0724 17.796C48.8645 18.4829 48.8645 19.1698 48.0724 19.8567L47.584 20.2516C45.0282 22.3182 43.8032 25.6146 44.3893 28.8488C44.4685 29.2234 44.3497 29.5825 44.0328 29.926C43.716 30.2694 43.32 30.4723 42.8447 30.5348C39.8579 30.9094 37.617 33.4489 37.617 36.4591V47.3013C37.617 47.8633 37.3002 48.2848 36.6665 48.5658C36.0328 48.8468 35.4388 48.8624 34.8843 48.6127C28.3078 46.0806 21.0253 46.0806 14.4487 48.6127C14.2111 48.7375 13.9338 48.8 13.617 48.8C13.3002 48.8 12.9833 48.7375 12.6665 48.6127C12.0328 48.3004 11.716 47.8633 11.716 47.3013V36.4591C11.716 33.4489 9.47514 30.9094 6.48829 30.5348C6.01304 30.4723 5.617 30.2694 5.30017 29.926C4.98334 29.5825 4.86452 29.2234 4.94373 28.8488C5.52979 25.6146 4.30486 22.3182 1.74898 20.2516L1.26056 19.8567C0.468484 19.1698 0.468484 18.4829 1.26056 17.796L1.74898 17.4011C4.30486 15.3344 5.52979 12.0381 4.94373 8.80389C4.86452 8.42922 4.98334 8.08577 5.30017 7.77355C5.617 7.46132 6.01304 7.27399 6.48829 7.21154L7.40368 7.08033C10.9847 6.56703 14.1865 4.57608 16.2309 1.59148C16.7853 0.779694 17.617 0.592361 18.7259 1.02948C22.5539 2.47803 26.7792 2.47803 30.6071 1.02948C31.716 0.592361 32.5477 0.779694 33.1021 1.59148C35.1465 4.57608 38.3483 6.56703 41.9293 7.08033L42.8447 7.21154C43.32 7.27399 43.716 7.46132 44.0328 7.77355C44.3497 8.08577 44.4685 8.42922 44.3893 8.80389C43.8032 12.0381 45.0282 15.3344 47.584 17.4011L48.0724 17.796ZM25.4982 41.6812L30.9477 43.768C32.3306 44.2975 33.815 43.2765 33.815 41.7956V36.2838C33.815 35.9002 33.3204 35.7458 33.1021 36.0612C32.7853 36.5607 32.2309 36.8105 31.4388 36.8105C30.8811 36.8105 30.3461 36.614 29.8273 36.4095L29.496 36.2789C26.3925 35.0555 22.9405 35.0555 19.837 36.2789L18.7259 36.7169C17.617 37.0915 16.7853 36.873 16.2309 36.0612C16.0126 35.7458 15.518 35.9002 15.518 36.2838V41.7956C15.518 43.2765 17.0024 44.2975 18.3853 43.768L23.8348 41.6812C24.3893 41.4315 24.9437 41.4315 25.4982 41.6812ZM40.112 22.1047C42.155 20.3965 42.155 17.2562 40.112 15.548C39.6368 15.2357 39.4388 14.8298 39.518 14.3303C39.9701 11.8861 38.2808 9.56239 35.8163 9.23857L34.6467 9.0849C34.0922 8.96001 33.6566 8.71022 33.3398 8.33555C31.7395 5.97697 28.7248 5.03258 26.0649 6.05667L25.4982 6.27486C24.9437 6.52465 24.3893 6.52465 23.8348 6.27486L23.2681 6.05667C20.6082 5.03258 17.5935 5.97697 15.9932 8.33555C15.6764 8.71022 15.2408 8.96001 14.6863 9.0849L13.5167 9.23857C11.0522 9.56239 9.36289 11.8861 9.81502 14.3303C9.89423 14.8298 9.69621 15.2357 9.22096 15.548C7.17804 17.2562 7.17804 20.3965 9.22096 22.1047C9.69621 22.4169 9.89423 22.8228 9.81502 23.3224C9.36289 25.7665 11.0522 28.0903 13.5167 28.4141L14.6863 28.5678C15.2408 28.6927 15.6764 28.9737 15.9932 29.4108C17.5974 31.7201 20.572 32.634 23.196 31.6237L23.8348 31.3778C24.0724 31.3154 24.3497 31.2841 24.6665 31.2841C24.9833 31.2841 25.2606 31.3154 25.4982 31.3778L26.137 31.6237C28.761 32.634 31.7357 31.7201 33.3398 29.4108C33.6566 28.9737 34.0922 28.6927 34.6467 28.5678L35.8163 28.4141C38.2808 28.0903 39.9701 25.7665 39.518 23.3224C39.4388 22.8228 39.6368 22.4169 40.112 22.1047ZM15.518 11.6608C15.518 11.6608 15.518 11.6608 15.518 11.6608C15.518 11.6607 16.1517 11.169 17.419 10.1855C18.6863 9.20198 21.1021 8.71022 24.6665 8.71022C28.2309 8.71022 31.2804 9.69373 33.815 11.6608C36.3497 13.6278 37.617 16.0163 37.617 18.8263C37.617 21.6364 36.3497 24.0405 33.815 26.0387C31.2804 28.037 28.2309 29.0361 24.6665 29.0361C21.1021 29.0361 18.0526 28.037 15.518 26.0387C12.9833 24.0405 11.716 21.6364 11.716 18.8263C11.716 16.0163 12.9833 13.6278 15.518 11.6608ZM18.1913 23.9312C18.1913 23.9312 18.1913 23.9312 18.1913 23.9312C18.1913 23.9312 18.6368 24.2825 19.5279 24.985C20.419 25.6875 22.1319 26.0387 24.6665 26.0387C27.2012 26.0387 29.3596 25.3362 31.1418 23.9312C32.9239 22.5262 33.815 20.8246 33.815 18.8263C33.815 16.8281 32.9239 15.1265 31.1418 13.7214C29.3596 12.3164 27.2012 11.6139 24.6665 11.6139C22.1319 11.6139 19.9734 12.3164 18.1913 13.7214C16.4091 15.1265 15.518 16.8281 15.518 18.8263C15.518 20.8246 16.4091 22.5262 18.1913 23.9312ZM28.4685 15.0796C29.419 14.3927 30.3299 14.3927 31.2012 15.0796C32.0724 15.7665 32.0724 16.4534 31.2012 17.1403L24.3101 22.573C23.914 22.8853 23.4586 23.0414 22.9437 23.0414C22.4289 23.0414 21.9734 22.8853 21.5774 22.573L18.1319 19.8567C17.2606 19.1698 17.2606 18.4829 18.1319 17.796C19.0031 17.1091 19.914 17.1091 20.8645 17.796C22.0417 18.7786 23.7463 18.8025 24.9505 17.8531L28.4685 15.0796Z"/>
</mask>
<path d="M48.0724 17.796C48.8645 18.4829 48.8645 19.1698 48.0724 19.8567L47.584 20.2516C45.0282 22.3182 43.8032 25.6146 44.3893 28.8488C44.4685 29.2234 44.3497 29.5825 44.0328 29.926C43.716 30.2694 43.32 30.4723 42.8447 30.5348C39.8579 30.9094 37.617 33.4489 37.617 36.4591V47.3013C37.617 47.8633 37.3002 48.2848 36.6665 48.5658C36.0328 48.8468 35.4388 48.8624 34.8843 48.6127C28.3078 46.0806 21.0253 46.0806 14.4487 48.6127C14.2111 48.7375 13.9338 48.8 13.617 48.8C13.3002 48.8 12.9833 48.7375 12.6665 48.6127C12.0328 48.3004 11.716 47.8633 11.716 47.3013V36.4591C11.716 33.4489 9.47514 30.9094 6.48829 30.5348C6.01304 30.4723 5.617 30.2694 5.30017 29.926C4.98334 29.5825 4.86452 29.2234 4.94373 28.8488C5.52979 25.6146 4.30486 22.3182 1.74898 20.2516L1.26056 19.8567C0.468484 19.1698 0.468484 18.4829 1.26056 17.796L1.74898 17.4011C4.30486 15.3344 5.52979 12.0381 4.94373 8.80389C4.86452 8.42922 4.98334 8.08577 5.30017 7.77355C5.617 7.46132 6.01304 7.27399 6.48829 7.21154L7.40368 7.08033C10.9847 6.56703 14.1865 4.57608 16.2309 1.59148C16.7853 0.779694 17.617 0.592361 18.7259 1.02948C22.5539 2.47803 26.7792 2.47803 30.6071 1.02948C31.716 0.592361 32.5477 0.779694 33.1021 1.59148C35.1465 4.57608 38.3483 6.56703 41.9293 7.08033L42.8447 7.21154C43.32 7.27399 43.716 7.46132 44.0328 7.77355C44.3497 8.08577 44.4685 8.42922 44.3893 8.80389C43.8032 12.0381 45.0282 15.3344 47.584 17.4011L48.0724 17.796ZM25.4982 41.6812L30.9477 43.768C32.3306 44.2975 33.815 43.2765 33.815 41.7956V36.2838C33.815 35.9002 33.3204 35.7458 33.1021 36.0612C32.7853 36.5607 32.2309 36.8105 31.4388 36.8105C30.8811 36.8105 30.3461 36.614 29.8273 36.4095L29.496 36.2789C26.3925 35.0555 22.9405 35.0555 19.837 36.2789L18.7259 36.7169C17.617 37.0915 16.7853 36.873 16.2309 36.0612C16.0126 35.7458 15.518 35.9002 15.518 36.2838V41.7956C15.518 43.2765 17.0024 44.2975 18.3853 43.768L23.8348 41.6812C24.3893 41.4315 24.9437 41.4315 25.4982 41.6812ZM40.112 22.1047C42.155 20.3965 42.155 17.2562 40.112 15.548C39.6368 15.2357 39.4388 14.8298 39.518 14.3303C39.9701 11.8861 38.2808 9.56239 35.8163 9.23857L34.6467 9.0849C34.0922 8.96001 33.6566 8.71022 33.3398 8.33555C31.7395 5.97697 28.7248 5.03258 26.0649 6.05667L25.4982 6.27486C24.9437 6.52465 24.3893 6.52465 23.8348 6.27486L23.2681 6.05667C20.6082 5.03258 17.5935 5.97697 15.9932 8.33555C15.6764 8.71022 15.2408 8.96001 14.6863 9.0849L13.5167 9.23857C11.0522 9.56239 9.36289 11.8861 9.81502 14.3303C9.89423 14.8298 9.69621 15.2357 9.22096 15.548C7.17804 17.2562 7.17804 20.3965 9.22096 22.1047C9.69621 22.4169 9.89423 22.8228 9.81502 23.3224C9.36289 25.7665 11.0522 28.0903 13.5167 28.4141L14.6863 28.5678C15.2408 28.6927 15.6764 28.9737 15.9932 29.4108C17.5974 31.7201 20.572 32.634 23.196 31.6237L23.8348 31.3778C24.0724 31.3154 24.3497 31.2841 24.6665 31.2841C24.9833 31.2841 25.2606 31.3154 25.4982 31.3778L26.137 31.6237C28.761 32.634 31.7357 31.7201 33.3398 29.4108C33.6566 28.9737 34.0922 28.6927 34.6467 28.5678L35.8163 28.4141C38.2808 28.0903 39.9701 25.7665 39.518 23.3224C39.4388 22.8228 39.6368 22.4169 40.112 22.1047ZM15.518 11.6608C15.518 11.6608 15.518 11.6608 15.518 11.6608C15.518 11.6607 16.1517 11.169 17.419 10.1855C18.6863 9.20198 21.1021 8.71022 24.6665 8.71022C28.2309 8.71022 31.2804 9.69373 33.815 11.6608C36.3497 13.6278 37.617 16.0163 37.617 18.8263C37.617 21.6364 36.3497 24.0405 33.815 26.0387C31.2804 28.037 28.2309 29.0361 24.6665 29.0361C21.1021 29.0361 18.0526 28.037 15.518 26.0387C12.9833 24.0405 11.716 21.6364 11.716 18.8263C11.716 16.0163 12.9833 13.6278 15.518 11.6608ZM18.1913 23.9312C18.1913 23.9312 18.1913 23.9312 18.1913 23.9312C18.1913 23.9312 18.6368 24.2825 19.5279 24.985C20.419 25.6875 22.1319 26.0387 24.6665 26.0387C27.2012 26.0387 29.3596 25.3362 31.1418 23.9312C32.9239 22.5262 33.815 20.8246 33.815 18.8263C33.815 16.8281 32.9239 15.1265 31.1418 13.7214C29.3596 12.3164 27.2012 11.6139 24.6665 11.6139C22.1319 11.6139 19.9734 12.3164 18.1913 13.7214C16.4091 15.1265 15.518 16.8281 15.518 18.8263C15.518 20.8246 16.4091 22.5262 18.1913 23.9312ZM28.4685 15.0796C29.419 14.3927 30.3299 14.3927 31.2012 15.0796C32.0724 15.7665 32.0724 16.4534 31.2012 17.1403L24.3101 22.573C23.914 22.8853 23.4586 23.0414 22.9437 23.0414C22.4289 23.0414 21.9734 22.8853 21.5774 22.573L18.1319 19.8567C17.2606 19.1698 17.2606 18.4829 18.1319 17.796C19.0031 17.1091 19.914 17.1091 20.8645 17.796C22.0417 18.7786 23.7463 18.8025 24.9505 17.8531L28.4685 15.0796Z" stroke="url(#paint0_linear_44_2996)" stroke-width="2" mask="url(#path-1-inside-1_44_2996)"/>
<defs>
<linearGradient id="paint0_linear_44_2996" x1="-0.833497" y1="48.4618" x2="53.5905" y2="44.6107" gradientUnits="userSpaceOnUse">
<stop stop-color="#008EBE"/>
<stop offset="0.444" stop-color="#48BDE8"/>
<stop offset="0.9999" stop-color="#01395A"/>
</linearGradient>
</defs>
</svg>
