<svg width="27" height="25" viewBox="0 0 27 25" fill="none" xmlns="http://www.w3.org/2000/svg">
<path fill-rule="evenodd" clip-rule="evenodd" d="M3.60538 1.072C5.24994 -0.563102 7.958 -0.272567 9.335 1.56794L11.0404 3.84357C12.162 5.34084 12.062 7.4327 10.7309 8.75564L10.4093 9.07726C10.373 9.21229 10.3693 9.35402 10.3985 9.49076C10.4836 10.0421 10.9444 11.2097 12.8741 13.1285C14.8038 15.0474 15.9795 15.5069 16.5389 15.5934C16.6798 15.6233 16.8257 15.6191 16.9646 15.5812L17.5159 15.0326C18.6997 13.8569 20.5159 13.6366 21.9807 14.4326L24.5617 15.8379C26.7739 17.0379 27.332 20.0433 25.5212 21.8446L23.601 23.7527C22.9956 24.354 22.1821 24.8553 21.1902 24.9486C18.7443 25.177 13.0457 24.8851 7.05532 18.9298C1.46488 13.3704 0.391926 8.52186 0.255442 6.13272C0.187875 4.92463 0.758135 3.90303 1.48515 3.18142L3.60538 1.072ZM7.71341 2.78278C7.02829 1.86793 5.75264 1.79496 5.03373 2.50981L2.91215 4.61788C2.46621 5.06112 2.2527 5.5503 2.27973 6.01786C2.38783 7.91647 3.25268 12.2907 8.48502 17.4933C13.9741 22.95 19.0429 23.1135 21.0024 22.9297C21.4023 22.8932 21.7996 22.6851 22.1713 22.3162L24.0901 20.4068C24.8712 19.6311 24.6996 18.2176 23.5942 17.6176L21.0132 16.2136C20.2997 15.8271 19.4645 15.9542 18.9456 16.4704L18.3308 17.0825L17.6146 16.3636C18.3308 17.0825 18.3281 17.0839 18.3281 17.0839L18.3267 17.0866L18.3227 17.0906L18.3132 17.0987L18.2929 17.1176C18.2355 17.1701 18.174 17.218 18.1092 17.2609C18.0011 17.3325 17.8578 17.4122 17.6781 17.4785C17.3132 17.6149 16.8295 17.6879 16.2322 17.596C15.0606 17.4163 13.5079 16.6177 11.4444 14.5663C9.3823 12.515 8.57691 10.9718 8.39583 9.80157C8.30259 9.20428 8.37691 8.72051 8.51475 8.35565C8.59118 8.15061 8.69974 7.95903 8.83636 7.78809L8.87961 7.7408L8.89853 7.72053L8.90663 7.71242L8.91069 7.70837L8.91339 7.70566L9.30257 7.31918C9.88094 6.74217 9.96202 5.78678 9.41744 5.05841L7.71341 2.78278Z" fill="url(#paint0_linear_104_234)"/>
<defs>
<linearGradient id="paint0_linear_104_234" x1="0.25" y1="0" x2="27.2765" y2="25.6752" gradientUnits="userSpaceOnUse">
<stop stop-color="#4063BF"/>
<stop offset="1" stop-color="#102458"/>
</linearGradient>
</defs>
</svg>
