<svg width="25" height="25" viewBox="0 0 25 25" fill="none" xmlns="http://www.w3.org/2000/svg">
<path d="M11.1111 16.6667H19.4444V19.4444H11.1111V16.6667ZM8.33333 5.55556H5.55556V8.33333H8.33333V5.55556ZM11.1111 13.8889H19.4444V11.1111H11.1111V13.8889ZM11.1111 8.33333H19.4444V5.55556H11.1111V8.33333ZM8.33333 11.1111H5.55556V13.8889H8.33333V11.1111ZM25 2.77778V22.2222C25 23.75 23.75 25 22.2222 25H2.77778C1.25 25 0 23.75 0 22.2222V2.77778C0 1.25 1.25 0 2.77778 0H22.2222C23.75 0 25 1.25 25 2.77778ZM22.2222 2.77778H2.77778V22.2222H22.2222V2.77778ZM8.33333 16.6667H5.55556V19.4444H8.33333V16.6667Z" fill="url(#paint0_linear_104_232)"/>
<defs>
<linearGradient id="paint0_linear_104_232" x1="0.692072" y1="-6.28643e-07" x2="25.6921" y2="25" gradientUnits="userSpaceOnUse">
<stop stop-color="#4063BF"/>
<stop offset="1" stop-color="#102458"/>
</linearGradient>
</defs>
</svg>
