<svg width="32" height="25" viewBox="0 0 32 25" fill="none" xmlns="http://www.w3.org/2000/svg">
<path d="M3.125 25C2.26562 25 1.53021 24.6943 0.91875 24.0828C0.307292 23.4714 0.00104167 22.7354 0 21.875V3.125C0 2.26562 0.30625 1.53021 0.91875 0.91875C1.53125 0.307291 2.26667 0.00104167 3.125 0H28.125C28.9844 0 29.7203 0.30625 30.3328 0.91875C30.9453 1.53125 31.251 2.26667 31.25 3.125V21.875C31.25 22.7344 30.9443 23.4703 30.3328 24.0828C29.7214 24.6953 28.9854 25.001 28.125 25H3.125ZM15.625 14.0625L3.125 6.25V21.875H28.125V6.25L15.625 14.0625ZM15.625 10.9375L28.125 3.125H3.125L15.625 10.9375ZM3.125 6.25V3.125V21.875V6.25Z" fill="url(#paint0_linear_104_226)"/>
<defs>
<linearGradient id="paint0_linear_104_226" x1="31.25" y1="25" x2="8.56817e-07" y2="-1.07102e-06" gradientUnits="userSpaceOnUse">
<stop stop-color="#102458"/>
<stop offset="1" stop-color="#4063BF"/>
</linearGradient>
</defs>
</svg>
