<svg xmlns="http://www.w3.org/2000/svg" width="25" height="24" viewBox="0 0 25 24" fill="none">
  <path d="M8.8999 6C10.4912 6 12.0173 6.63214 13.1425 7.75736C14.2678 8.88258 14.8999 10.4087 14.8999 12C14.8999 13.5913 14.2678 15.1174 13.1425 16.2426C12.0173 17.3679 10.4912 18 8.8999 18C7.3086 18 5.78248 17.3679 4.65726 16.2426C3.53204 15.1174 2.8999 13.5913 2.8999 12C2.8999 10.4087 3.53204 8.88258 4.65726 7.75736C5.78248 6.63214 7.3086 6 8.8999 6ZM17.8999 7C19.3999 7 20.3999 9.239 20.3999 12C20.3999 14.761 19.3999 17 17.8999 17C16.3999 17 15.3999 14.761 15.3999 12C15.3999 9.239 16.3999 7 17.8999 7ZM21.8999 7.5C22.2799 7.5 22.6119 8.327 22.7799 9.746L22.8269 10.189L22.8459 10.424L22.8759 10.918L22.8859 11.177L22.8979 11.718L22.8999 12L22.8979 12.282L22.8859 12.823L22.8759 13.083L22.8459 13.576L22.8259 13.811L22.7809 14.254C22.6119 15.674 22.2809 16.5 21.8999 16.5C21.5199 16.5 21.1879 15.673 21.0199 14.254L20.9729 13.811C20.966 13.7327 20.9597 13.6544 20.9539 13.576L20.9239 13.082C20.92 12.9957 20.9167 12.9094 20.9139 12.823L20.9019 12.282V11.718L20.9139 11.177L20.9239 10.917L20.9539 10.424L20.9739 10.189L21.0189 9.746C21.1879 8.326 21.5189 7.5 21.8999 7.5Z" fill="#BABCC6"/>
</svg>