<svg width="48" height="49" viewBox="0 0 48 49" fill="none" xmlns="http://www.w3.org/2000/svg">
<path d="M46.6222 47.4537L46.9672 47.8156L46.6222 47.4537C47.2134 46.8902 47.5 46.2235 47.5 45.425V42.8937C47.5 40.3047 46.4621 38.2331 44.3571 36.6385C41.2777 34.3851 38.0121 32.3524 34.56 30.5407C33.2227 29.8388 32.3525 28.4618 32.3525 26.9366C32.3525 26.3883 32.4541 25.8903 32.6483 25.3882C32.8896 24.764 33.268 24.1858 33.643 23.6561C33.7528 23.501 33.8613 23.3513 33.9672 23.2052C34.2353 22.8353 34.487 22.4881 34.7023 22.1325C35.0643 21.5346 35.405 20.6968 35.7157 19.6011L35.7156 19.601L35.719 19.5901C36.1317 18.2525 36.2274 16.7608 36.198 15.2119C36.1803 14.2781 36.1196 13.3633 36.0592 12.455C36.0179 11.8324 35.9768 11.213 35.9498 10.5925C35.872 8.79947 35.4153 7.43773 34.6273 6.45776C33.4818 5.03843 31.84 3.95228 30.2108 2.92511C30.0061 2.79605 29.7923 2.67245 29.5693 2.55436L29.5693 2.55445L29.5603 2.54948C28.0676 1.71955 26.3821 1.29999 24.4918 1.29999H24.4903H24.4887H24.4872H24.4856H24.4841H24.4826H24.481H24.4795H24.4779H24.4764H24.4748H24.4733H24.4717H24.4701H24.4686H24.467H24.4655H24.4639H24.4623H24.4608H24.4592H24.4576H24.4561H24.4545H24.4529H24.4513H24.4498H24.4482H24.4466H24.445H24.4434H24.4419H24.4403H24.4387H24.4371H24.4355H24.4339H24.4323H24.4307H24.4291H24.4275H24.4259H24.4243H24.4227H24.4211H24.4195H24.4179H24.4163H24.4147H24.4131H24.4115H24.4099H24.4082H24.4066H24.405H24.4034H24.4018H24.4001H24.3985H24.3969H24.3953H24.3936H24.392H24.3904H24.3887H24.3871H24.3855H24.3838H24.3822H24.3805H24.3789H24.3773H24.3756H24.374H24.3723H24.3707H24.369H24.3674H24.3657H24.364H24.3624H24.3607H24.3591H24.3574H24.3557H24.3541H24.3524H24.3507H24.3491H24.3474H24.3457H24.3441H24.3424H24.3407H24.339H24.3373H24.3357H24.334H24.3323H24.3306H24.3289H24.3272H24.3255H24.3239H24.3222H24.3205H24.3188H24.3171H24.3154H24.3137H24.312H24.3103H24.3086H24.3068H24.3051H24.3034H24.3017H24.3H24.2983H24.2966H24.2949H24.2931H24.2914H24.2897H24.288H24.2862H24.2845H24.2828H24.2811H24.2793H24.2776H24.2759H24.2741H24.2724H24.2706H24.2689H24.2672H24.2654H24.2637H24.2619H24.2602H24.2584H24.2567H24.2549H24.2532H24.2514H24.2497H24.2479H24.2461H24.2444H24.2426H24.2409H24.2391H24.2373H24.2356H24.2338H24.232H24.2302H24.2285H24.2267H24.2249H24.2231H24.2214H24.2196H24.2178H24.216H24.2142H24.2124H24.2106H24.2088H24.2071H24.2053H24.2035H24.2017H24.1999H24.1981H24.1963H24.1945H24.1927H24.1909H24.189H24.1872H24.1854H24.1836H24.1818H24.18H24.1782H24.1763H24.1745H24.1727H24.1709H24.1691H24.1672H24.1654H24.1636H24.1617H24.1599H24.1581H24.1562H24.1544H24.1526H24.1507H24.1489H24.147H24.1452H24.1434H24.1415H24.1397H24.1378H24.136H24.1341H24.1323H24.1304H24.1285H24.1267H24.1248H24.123H24.1211H24.1192H24.1174H24.1155H24.1136H24.1118H24.1099H24.108H24.1061H24.1043H24.1024H24.1005H24.0986H24.0967H24.0949H24.093H24.0911H24.0892H24.0873H24.0854H24.0835H24.0816H24.0797H24.0778H24.0759H24.074H24.0721H24.0702H24.0683H24.0664H24.0645H24.0626H24.0607H24.0588H24.0569H24.0549H24.053H24.0511H24.0492H24.0473H24.0453H24.0434H24.0415H24.0396H24.0376H24.0357H24.0338H24.0318H24.0299H24.028H24.026H24.0241H24.0221H24.0202H24.0183H24.0163H24.0144H24.0124H24.0105H24.0085H24.0066H24.0046H24.0026H24.0007H23.9987H23.9968H23.9948H23.9928H23.9909H23.9889H23.9869H23.985H23.983H23.981H23.979H23.9771H23.9751H23.9731H23.9711H23.9692H23.9672H23.9652H23.9632H23.9612H23.9592H23.9572H23.9552H23.9532H23.9513H23.9493H23.9473H23.9453H23.9433H23.9412H23.9392H23.9372H23.9352H23.9332H23.9312H23.9292H23.9272H23.9252H23.9232H23.9211H23.9191H23.9171H23.9151H23.9131H23.911H23.909H23.907H23.9049H23.9029H23.9009H23.8988H23.8968H23.8948H23.8927H23.8907H23.8886H23.8866H23.8846H23.8825H23.8805H23.8784H23.8764H23.8743H23.8723H23.8702H23.8681H23.8661H23.864H23.862H23.8599H23.8578H23.8558H23.8537H23.8516H23.8496H23.8475H23.8454H23.8433H23.8413H23.8392H23.8371H23.835H23.8329H23.8309H23.8288H23.8267H23.8246H23.8225H23.8204H23.8183H23.8162H23.8141H23.812H23.8099H23.8078H23.8057H23.8036H23.8015H23.7994H23.7973H23.7952H23.7931H23.791H23.7889H23.7868H23.7846H23.7825H23.7804H23.7783H23.7762H23.774H23.7719H23.7698H23.7676H23.7655H23.7634H23.7613H23.7591H23.757H23.7548H23.7527H23.7506H23.7484H23.7463H23.7441H23.742H23.7398H23.7377H23.7355H23.7334H23.7312H23.7291H23.7269H23.7248H23.7226H23.7204H23.7183H23.7161H23.7139H23.7118H23.7096H23.7074H23.7053H23.7031H23.7009H23.6987H23.6966H23.6944H23.6922H23.69H23.6878H23.6856H23.6834H23.6813H23.6791H23.6769H23.6747H23.6725H23.6703H23.6681H23.6659H23.6637H23.6615H23.6593H23.6571H23.6549H23.6527H23.6505H23.6482H23.646H23.6438H23.6416H23.6394H23.6372H23.6349H23.6327H23.6305H23.6283H23.626H23.6238H23.6216H23.6194H23.6171H23.6149H23.6127H23.6104H23.6082H23.6059H23.6037H23.6015H23.5992H23.597H23.5947H23.5925H23.5902H23.588H23.5857H23.5835H23.5812H23.5789H23.5767H23.5744H23.5722H23.5699H23.5676H23.5654H23.5631H23.5608H23.5586H23.5563H23.554H23.5517H23.5494H23.5472H23.5449H23.5426H23.5403H23.538H23.5358H23.5335H23.5312H23.5289H23.5267C22.7203 1.36042 21.9121 1.50862 21.1018 1.74553C20.2269 2.04427 19.3468 2.46327 18.4615 3.00539C17.5114 3.60947 16.658 4.30281 15.9002 5.08533L15.9002 5.0854L15.8933 5.09231C14.3718 6.60289 13.4094 8.21333 12.9765 9.92274L12.9742 9.93187L12.9715 9.94092C12.6008 11.2029 12.5257 12.4335 12.7391 13.6387C12.8456 14.2397 12.5679 14.7823 12.3114 15.1491L12.3 15.1653L12.2874 15.1805C11.7425 15.8416 11.6309 17.0764 12.2798 19.1172L12.2831 19.1276L12.2859 19.1381C12.4428 19.7177 12.6101 20.225 12.7868 20.6618C13.0839 21.3968 13.4614 22.1306 13.8517 22.889L13.8547 22.8947C14.2401 23.6434 14.638 24.4166 14.9539 25.1997C15.0557 25.452 15.1657 25.7003 15.2839 25.9447C15.5055 26.4028 15.6475 26.9151 15.6475 27.4515C15.6475 28.6611 14.9541 29.7527 13.8874 30.2971C10.2179 32.1697 6.80379 34.2832 3.64453 36.6373C1.53842 38.232 0.5 40.304 0.5 42.8937V45.425C0.5 46.2235 0.786601 46.8902 1.37776 47.4537C1.97702 48.0248 2.6581 48.3 3.44262 48.3H44.5574C45.3419 48.3 46.023 48.0248 46.6222 47.4537ZM30.8425 25.6761L30.8427 25.6762L30.8362 25.6885C30.8185 25.7222 30.7951 25.7929 30.7951 25.925V29.675C30.7951 29.8949 30.851 30.0662 30.9507 30.2087C31.0531 30.3551 31.2221 30.5 31.491 30.6285C35.5876 32.5181 39.5498 34.8788 43.3775 37.7092C45.1433 38.9892 46.041 40.732 46.041 42.8937V45.425C46.041 45.8244 45.877 46.1704 45.5909 46.4432C45.3049 46.7158 44.9532 46.8625 44.5574 46.8625H3.44262C3.04682 46.8625 2.69512 46.7158 2.40913 46.4432C2.12298 46.1704 1.95902 45.8244 1.95902 45.425V42.8937C1.95902 40.732 2.85673 38.9891 4.62267 37.709C8.45034 34.8787 12.4124 32.5181 16.509 30.6285C16.7779 30.5 16.9469 30.3551 17.0493 30.2087C17.149 30.0662 17.2049 29.8949 17.2049 29.675V26.4875C17.2049 26.3301 17.1654 26.2135 17.0985 26.1178L17.0866 26.1009L17.0762 26.083C16.3861 24.899 15.9094 23.5285 15.6386 21.9799L15.6368 21.9693L15.6354 21.9588C15.6019 21.703 15.429 21.4834 15.0927 21.1564C15.0595 21.1242 15.0242 21.0904 14.9873 21.0552C14.6989 20.7801 14.3155 20.4141 14.1187 19.9394C13.9784 19.6008 13.8353 19.2105 13.6893 18.7697L13.6843 18.7547L13.6803 18.7393C13.5864 18.3816 13.5119 18.0546 13.4576 17.7593C13.3564 17.2094 13.5919 16.7779 13.8403 16.4619C13.9633 16.3054 14.1035 16.1595 14.2272 16.0319L14.2563 16.0019C14.3675 15.8872 14.4656 15.7861 14.553 15.6836C14.7147 15.4439 14.7523 15.2054 14.6732 14.9281C14.1169 13.4583 14.0508 11.9228 14.4651 10.3372C14.8187 8.79456 15.6606 7.37306 16.9573 6.07201L16.9572 6.0719L16.9665 6.06305C17.6354 5.42553 18.3993 4.82284 19.2565 4.25415C19.3328 4.20353 19.4181 4.16968 19.507 4.15393C20.1478 3.73853 20.8199 3.40616 21.5229 3.15793C21.5996 3.13084 21.6788 3.11615 21.7577 3.11309C22.3619 2.92693 22.9954 2.80284 23.6575 2.73974L23.6575 2.73959L23.6697 2.73873C25.5235 2.60785 27.2233 2.93495 28.7552 3.73136L28.7552 3.73132L28.7608 3.73433C29.8616 4.32448 30.6944 5.03484 31.2134 5.88273L31.222 5.89683L31.2297 5.91146C31.34 6.12189 31.5114 6.2537 31.8108 6.30059C32.4256 6.31886 32.9676 6.75293 33.4366 7.32762L33.4483 7.34197L33.4589 7.35715C34.056 8.21082 34.3655 9.34495 34.4338 10.7125C34.5022 12.0825 34.3306 13.7218 33.932 15.6214C33.8633 15.9488 33.9874 16.2789 34.2028 16.791C34.2086 16.8049 34.2145 16.8189 34.2205 16.833C34.4086 17.2793 34.6674 17.8929 34.5144 18.5597C34.4606 18.7946 34.3943 19.0464 34.3161 19.3149L34.3138 19.3229L34.3112 19.3308C34.1221 19.9075 33.9414 20.3994 33.7688 20.8035C33.6149 21.1637 33.3351 21.3856 33.0831 21.5347C32.914 21.6348 32.7092 21.7268 32.5442 21.8009C32.4822 21.8287 32.4258 21.8541 32.379 21.8764L32.348 21.8911L32.3153 21.9015C32.1981 21.9388 32.1293 21.9904 32.0841 22.0458C32.0374 22.1031 31.9923 22.1935 31.9699 22.3429L31.9673 22.3598L31.9636 22.3766C31.6942 23.5966 31.3216 24.6977 30.8425 25.6761Z" stroke="url(#paint0_linear_44_2991)"/>
<defs>
<linearGradient id="paint0_linear_44_2991" x1="-1.5" y1="48.4618" x2="52.924" y2="44.6107" gradientUnits="userSpaceOnUse">
<stop stop-color="#008EBE"/>
<stop offset="0.444" stop-color="#48BDE8"/>
<stop offset="0.9999" stop-color="#01395A"/>
</linearGradient>
</defs>
</svg>
